PathFileType	4	(X/Y/Z)	C:\Users\°ÂÌØÂü\Desktop\20210112\bx_n_10_1802-Unnamed.trc
DataRate	CameraRate	NumFrames	NumMarkers	Units	OrigDataRate	OrigDataStartFrame	OrigNumFrames
50.00	50.00	       10	0	mm	50.00	324	       518
Frame#	Time	
		

324	6.460	-721.73480	275.70325	643.50574	-701.72449	145.89661	207.96584	-628.05377	-67.72736	572.78949	-847.01111	279.76465	702.73865	-730.61737	-36.54823	755.41968				-550.01794	205.98416	503.62766	-587.10626	43.65248	561.17944	-613.01831	-65.64043	535.66803	-666.03033	54.80786	155.43900	-1037.58704	85.11320	850.44464	-653.84229	257.87698	482.68930	-567.97992	142.79170	560.78943	-784.20062	51.32336	178.26219				-651.03046	-68.56318	160.22707				-758.18097	223.01666	208.24789	-609.64606	-78.09331	155.95227	-882.43616	296.14734	144.72641	-508.02686	-77.48512	1087.81006	-593.52991	23.69941	166.83521	-672.08527	171.53363	151.35693	-589.29028	215.80708	170.82095	-658.43286	294.43729	162.94377	-622.30304	301.83569	161.35655	-554.58813	256.39761	162.76109	-528.29297	304.16830	146.64963	-292.48376	92.82506	1284.34497	-505.34521	254.37671	1088.00854	-518.00403	-73.09309	143.36868	-546.53821	-34.25310	162.61903	-789.60150	172.24553	188.05118	-835.47107	222.54047	819.70239	-671.17822	-65.03908	467.66925	-746.85358	-13.20404	206.86391	-875.83881	-78.68930	141.40500	-735.86835	203.08055	758.38550	-839.25842	-98.03342	722.84155	-746.19501	-92.15697	653.27545	-700.08081	73.44379	210.69402	
325	6.480	-718.96313	276.63187	638.73840	-701.02863	145.83923	207.68137	-623.86871	-68.25984	570.39709	-845.51508	280.32089	694.09918	-730.92352	-35.64774	750.11182	-609.72247	-78.49580	156.41263				-582.42285	44.16141	559.74005	-608.48694	-65.75665	533.46277				-1038.34546	87.75491	837.80902	-649.47565	258.28912	481.32132	-563.86383	142.82320	558.82336	-783.72528	51.42746	177.98323				-650.71002	-68.22933	160.82645				-757.05194	223.28717	208.42181				-882.43616	296.14734	144.72641	-507.30203	-76.29999	1074.96887	-593.44897	23.70113	166.48248	-672.14178	171.67818	151.12376	-588.69092	215.85808	171.19626	-658.14783	294.29153	163.18727	-622.19922	301.56668	161.30743	-554.50079	256.47278	162.76601	-528.29297	304.16830	146.64963	-292.76816	94.12677	1271.77930	-504.85611	255.78506	1075.26404	-517.98413	-73.01685	143.45453	-546.64606	-34.11338	162.03104	-789.64447	172.18263	188.31145	-835.61304	223.77509	809.55621	-668.15399	-65.44093	466.92508	-746.63519	-13.17374	206.69952	-875.95648	-78.79716	141.44162	-736.00281	203.11974	752.58197	-837.99969	-96.81702	714.75391	-744.10999	-92.02676	648.12488	
326	6.500	-715.79071	277.41336	633.43182	-699.88855	146.18452	206.82257	-619.60168	-68.26770	568.02655	-844.14557	281.74493	686.37994	-730.60077	-34.65105	744.52454	-609.44800	-78.72192	156.56982				-578.28302	44.34310	558.01324	-604.43842	-65.98179	531.99731				-1039.43701	88.87525	825.65369	-645.77838	258.94736	479.29663	-559.18610	142.72441	556.82861	-783.86847	51.53605	178.19359				-650.67505	-67.78563	160.98929				-757.30750	223.18277	208.08902				-882.48492	296.28201	144.80209	-506.73242	-74.18207	1062.06653	-593.25092	23.80766	166.68864	-672.45233	172.00894	150.47823	-589.20978	215.48372	170.56604	-657.98639	294.16830	163.55597	-622.20703	301.43030	161.16159	-554.50079	256.47278	162.76601	-528.08575	303.95615	146.32368	-293.16531	95.31853	1259.48901	-504.40594	256.96320	1062.19531	-517.91229	-72.85536	143.44107	-546.77301	-34.20927	161.97824	-789.44507	171.99850	188.16380	-835.31311	224.87865	799.44141	-664.03625	-64.73077	465.23166	-746.12512	-13.18376	207.31682	-876.00275	-78.74174	141.50209	-735.95789	203.61212	746.42053	-837.24994	-96.20755	706.98938	-741.27960	-90.86422	642.53705	
327	6.520	-712.73352	278.09488	627.34113	-701.33362	145.07014	207.54201	-615.87616	-67.59120	565.88483	-842.00842	282.68915	677.02893	-730.70428	-32.77388	738.88928	-609.44800	-78.72192	156.56982				-574.89209	43.97371	556.05792	-600.31580	-65.70565	529.51697				-1039.73291	90.00427	813.58270	-641.67560	259.88596	477.90021	-555.39728	143.68643	554.63910	-783.87848	51.60168	178.26010				-650.64917	-67.76054	160.93790				-757.20477	223.10048	208.16292				-882.42584	296.01208	144.62569	-506.64948	-72.91183	1050.28735	-593.49872	23.57217	166.34535	-672.29102	171.70854	150.86467	-588.69092	215.85808	171.19626	-657.99603	293.94916	163.27786	-622.02228	301.11459	160.69182	-554.54175	256.86206	163.00079	-528.13049	304.08350	146.28110	-293.85495	96.65894	1247.87402	-504.75049	257.84354	1049.55872	-517.69250	-73.11354	143.19725	-546.28900	-34.82046	162.29013	-789.31818	171.98827	188.50900	-835.24133	225.64536	789.03992	-660.84235	-64.63096	464.53406	-745.83051	-12.77086	207.21269	-876.00275	-78.74174	141.50209	-735.50928	204.66975	740.34357	-836.66852	-94.71058	699.27441	-738.92981	-90.12556	636.77814	
328	6.540	-709.58569	279.78622	621.90515	-701.17285	144.90817	207.41635	-611.38660	-66.25050	563.38995	-840.39764	284.13733	668.04120	-731.41791	-30.93364	733.69415	-609.71442	-78.43211	156.46432	-533.33057	206.97523	495.80716	-571.42151	45.77514	554.16565	-595.57776	-64.11951	527.97522				-1039.94739	92.38114	800.61682				-551.63428	144.66020	552.43835	-783.82941	51.63596	178.28755				-650.49261	-68.27306	161.94643				-756.84998	222.96138	208.11012				-882.53021	296.19693	144.72672	-506.80930	-71.71950	1038.34766	-593.26764	24.13117	166.29045	-672.17828	171.63741	151.00104	-589.02008	215.63979	170.68057	-657.68060	294.09741	163.51129	-622.38647	301.27313	161.03484	-554.41595	256.83667	162.86969	-528.09094	304.45642	146.80426	-294.57236	98.34467	1236.53833	-504.55045	259.16330	1037.19885	-517.66052	-72.82606	143.03236	-546.66760	-34.41883	161.87303	-789.41461	171.99727	188.67752	-834.44818	226.75177	778.69623	-656.99579	-63.04837	463.05640	-746.04016	-11.99750	206.88148	-876.16071	-78.51437	141.30566	-735.24896	205.30521	733.61383	-835.58795	-93.33369	691.10669	-736.68811	-89.12267	631.90112	
329	6.560	-707.22821	280.35583	615.95007	-701.07837	144.73753	207.32057	-606.94531	-65.26807	561.40088	-838.91772	285.51132	659.77454	-731.53754	-28.75734	728.30585	-609.80273	-78.29748	156.73019	-529.40100	208.75140	493.99429	-567.97144	47.94858	552.37714	-591.91162	-62.62547	526.46143				-1040.65125	94.25932	787.78766				-547.80957	146.09569	550.68573	-783.69690	51.78776	178.20070				-650.40521	-67.87357	162.09862				-756.49243	223.00044	208.30775				-882.45593	296.22400	144.77756	-506.80231	-70.36292	1026.96936	-593.05402	24.07186	166.18250	-672.04816	171.37984	151.10289	-589.00616	215.56314	170.78889	-657.68951	294.15350	163.49954	-622.38647	301.27313	161.03484	-554.40674	256.92853	162.85788	-528.17725	304.56635	146.65282	-295.85675	99.62669	1225.44885	-504.81610	260.29501	1025.84961	-517.86786	-72.93129	143.54524	-546.40405	-34.49585	162.13547	-788.54163	171.09315	188.35789	-834.22107	227.93398	768.16400	-653.76971	-61.68682	462.45334	-745.35620	-11.47012	207.16586	-876.15002	-78.46633	141.35417	-735.36743	206.80334	727.28741	-834.56665	-92.10004	683.74731	-733.79633	-87.41255	626.78113	
330	6.580	-704.88629	280.82391	610.89661	-700.05780	145.25212	206.45285	-603.16632	-63.99620	559.21344	-837.08301	286.81860	650.21045	-731.47211	-26.23406	722.73157	-610.18268	-77.96473	157.41481	-526.65936	209.96927	491.34616	-564.59808	49.76147	550.58997	-588.34961	-61.20094	524.97772	-540.41437	-11.10532	478.27206	-1041.28394	95.31553	775.35077				-543.87561	147.37523	548.99457	-783.57269	52.52059	179.11139				-650.14264	-67.43134	162.34137				-755.90027	223.15076	208.49179				-882.47070	296.11298	144.62279	-507.19516	-68.90804	1016.05011	-593.09698	24.55872	165.75648	-671.71191	171.64024	150.92789	-589.05164	215.61382	170.66150	-657.80841	294.25119	163.28709	-622.46655	301.14273	160.53481	-554.36084	257.03671	162.83362	-528.09094	304.45642	146.80426	-297.00381	100.74756	1214.93091	-505.23392	261.23828	1014.49762	-517.51611	-73.21301	143.44324	-546.29535	-34.59813	161.66187	-788.23584	171.07397	188.45462	-833.89978	228.74551	757.41919	-650.26196	-60.67392	461.84879	-744.45129	-11.19971	208.00714	-876.04803	-78.48602	141.09680	-735.22699	207.86777	721.34631	-833.50458	-90.79180	676.33057	-731.49268	-86.26109	621.75555	
331	6.600				-699.93860	145.52878	206.81372	-599.86560	-62.48531	557.42249	-835.95343	288.71011	642.26801	-731.32782	-24.01524	717.22681	-610.18268	-77.96473	157.41481	-522.67706	210.99007	490.14169	-561.96790	51.55564	548.39734	-584.62195	-60.02337	523.53082	-537.07379	-9.35279	476.25854	-1041.85327	96.42618	763.04193				-540.86853	148.91788	547.25262	-783.33948	52.51896	178.39845				-650.15332	-67.18246	162.85696				-755.76880	223.03342	208.14154				-882.80145	295.73984	144.39970	-507.42813	-67.95218	1005.93176	-593.01044	24.77309	165.35362	-671.82837	171.71983	151.01405	-589.00049	215.76561	170.43546	-658.02185	294.40985	162.72481	-622.48761	301.79904	160.25700	-554.36084	257.11835	162.74385	-528.18402	304.70187	146.95001	-298.33917	102.27390	1204.98889	-506.08542	262.27820	1003.74103	-517.66052	-72.82606	143.03236	-546.26373	-34.67619	161.60237	-788.11981	171.21603	188.72452	-833.89935	230.14180	747.52521	-647.24017	-58.79597	460.42468	-744.57831	-10.90085	208.06406	-875.79388	-78.47688	141.16841	-735.57898	208.80927	715.24127	-831.53265	-89.14530	668.31409	-729.38519	-84.72262	616.80170	
332	6.620				-699.70404	145.82819	207.14565	-596.31427	-61.28971	555.67657	-834.43353	290.33643	633.98022	-731.83105	-21.71885	711.39374	-610.22852	-77.66453	157.49004	-520.82574	214.43730	487.60025	-559.22601	52.65672	547.04938	-581.24182	-58.59003	521.86353	-533.18011	-7.50332	474.75735	-1041.96472	98.25934	750.98022				-537.81641	151.19112	545.43927	-783.65216	52.59976	178.19809				-650.05511	-67.08789	163.33588				-755.56378	223.16779	208.20995				-882.49133	296.17285	144.75363	-507.60471	-66.67886	995.70068	-593.01044	24.77309	165.35362	-671.62805	171.55711	151.05766	-588.72754	216.04190	170.91333	-657.92957	294.66061	162.37733	-622.38879	302.34277	159.63649	-553.96783	257.01608	162.47896	-528.09094	304.45642	146.80426	-299.96793	103.66752	1195.29541	-507.04492	263.06726	993.49371	-517.66052	-72.82606	143.03236	-545.88361	-34.86109	161.92107	-787.92657	171.12712	188.91092	-833.58478	231.70705	737.04181	-644.54675	-57.92645	459.45862	-744.43811	-10.51948	208.08017	-875.95648	-78.79716	141.44162	-735.69897	210.38728	708.66370	-831.08801	-88.28429	661.15985	-727.19324	-82.99930	611.95435	
333	6.640				-699.02820	146.09920	207.53583	-593.37695	-59.85762	553.63104	-833.50604	292.16504	626.15936	-732.64838	-19.80711	706.50909	-609.76746	-77.67169	157.40614	-517.84308	215.65398	486.52393	-556.65137	54.53536	545.84943	-577.95563	-57.22756	519.87177	-530.10724	-6.01913	474.42661	-1042.41919	99.35818	739.30255				-535.08209	153.66113	543.57568	-783.23315	52.47018	178.32814				-649.78497	-66.64221	163.10013				-755.41052	223.28406	208.01263				-882.50250	295.98264	144.71605	-507.62579	-65.95526	985.87335	-592.84625	24.74998	165.63698	-671.83588	171.26144	150.37274	-588.40259	216.51210	171.14539	-657.80615	295.29431	161.24898	-622.94263	302.57016	159.11505	-553.85956	257.59286	162.51938	-528.06018	304.27841	146.79927	-301.60016	105.32990	1186.19519	-507.80554	264.75656	983.79639	-517.81958	-73.01336	143.41586	-545.84180	-34.89346	161.79604	-787.83276	171.09045	189.08015	-832.96271	233.27357	727.54364	-641.95245	-56.88924	459.11942	-744.26251	-10.21013	207.90779	-875.79120	-78.61413	141.32553	-736.32001	212.00896	702.92108	-830.07709	-87.00311	654.29962	-725.40839	-81.75181	607.67139	
